<svg width="18" height="18" viewBox="0 0 18 18" fill="none" xmlns="http://www.w3.org/2000/svg">
<path fill-rule="evenodd" clip-rule="evenodd" d="M9.00013 7.2V10.8001H14.0923C13.3485 12.8953 11.3471 14.4 9.00013 14.4C6.02269 14.4 3.59969 11.9771 3.59969 8.99959C3.59969 6.02305 6.02269 3.60002 9.00013 3.60002C10.2909 3.60002 11.5327 4.06283 12.4972 4.9036L14.8626 2.18862C13.2426 0.777852 11.1614 -0.000126 9.00013 -0.000126C4.0376 -0.000126 -5.4e-05 4.03776 -5.4e-05 8.99959C-5.4e-05 13.9627 4.0376 17.9998 9.00013 17.9998C13.9627 17.9998 17.9999 13.9627 17.9999 8.99959V7.2H9.00013Z" fill="white" fill-opacity="0.5"/>
</svg>
